<?xml version="1.0" encoding="utf-8"?>
<!-- Generator: Adobe Illustrator 17.0.2, SVG Export Plug-In . SVG Version: 6.00 Build 0)  -->
<!DOCTYPE svg PUBLIC "-//W3C//DTD SVG 1.1//EN" "http://www.w3.org/Graphics/SVG/1.1/DTD/svg11.dtd">
<svg version="1.1" id="Layer_1" xmlns="http://www.w3.org/2000/svg" xmlns:xlink="http://www.w3.org/1999/xlink" x="0px" y="0px"
	 width="11px" height="13px" viewBox="0 0 11 13" enable-background="new 0 0 11 13" xml:space="preserve">
<g>
	<path fill="#C3C3C3" d="M5.498,0.214c-2.524,0-4.572,2.148-4.572,4.789c0,2.65,2.047,4.789,4.572,4.789
		c2.528,0,4.576-2.138,4.576-4.789C10.074,2.362,8.026,0.214,5.498,0.214z M5.504,7.503c-1.317,0-2.387-1.125-2.387-2.5
		c0-1.375,1.069-2.492,2.387-2.492c1.311,0,2.379,1.117,2.379,2.492C7.882,6.378,6.814,7.503,5.504,7.503z"/>
	<path fill="#C3C3C3" d="M11,11.485c0,0.713-0.613,1.301-1.382,1.301H1.382C0.619,12.786,0,12.198,0,11.485V6.119
		c0-0.723,0.62-1.301,1.382-1.301h8.235C10.387,4.818,11,5.396,11,6.119V11.485z"/>
</g>
</svg>
